# xmcd
#
# Track frame offsets:
#	150
#	12857
#	26345
#	34255
#	49565
#	58030
#	68825
#	84052
#	96015
#	105285
#	112715
#	125020
#	146455
#	159980
#	169050
#	179040
#
# Disc length: 2553
#
# Revision: 1
# Processed by: cddbd v1.5.1PL0 Copyright (c) Steve Scherf et al.
# Submitted via: dBpowerAMP V4.0
# Normalized: r0:TDELIM( - )
#
DISCID=be09f710
DTITLE=Various Artist - Country Collection III
DYEAR=1900
DGENRE=Country
TTITLE0=Lynn Anderson - Rose Garden
TTITLE1=Alabama - Patches
TTITLE2=George Jones - Jambalaya
TTITLE3=Burl Ives - Green Green Grass Of Home
TTITLE4=Waylon Jennings - Abilene
TTITLE5=Barbara Mandrell - The Wayward Wind
TTITLE6=Kenny Rogers - For The Good Times
TTITLE7=Billie Jo Spears - Look What They've Done To My Song
TTITLE8=Conway Twitty - The Road That I Walk
TTITLE9=Dolly Parton - Puppy Love
TTITLE10=Carl Perkins - We Did In '54
TTITLE11=Sammi Smith - Sunday Morning Coming Down
TTITLE12=BJ Thomas - I Just Can't Help Believing
TTITLE13=Mac Davis - Boy's Ain't Suppose To Cry
TTITLE14=Don Williams - Take My Hand For A While
TTITLE15=Kitty Wells - Makin' Believe
EXTD=
EXTT0=
EXTT1=
EXTT2=
EXTT3=
EXTT4=
EXTT5=
EXTT6=
EXTT7=
EXTT8=
EXTT9=
EXTT10=
EXTT11=
EXTT12=
EXTT13=
EXTT14=
EXTT15=
PLAYORDER=
